<svg xmlns="http://www.w3.org/2000/svg" width="1200" height="630" viewBox="0 0 1200 630">
	<defs>
		<pattern id="grid" width="48" height="48" patternUnits="userSpaceOnUse">
			<path d="M48 0H0V48" fill="none" stroke="#e0ddd8" stroke-opacity="0.82" />
		</pattern>
		<linearGradient id="accent" x1="0" x2="1" y1="0" y2="1">
			<stop offset="0" stop-color="#f0c8bb" />
			<stop offset="0.36" stop-color="#c45c3e" />
			<stop offset="1" stop-color="#7b2d1c" />
		</linearGradient>
		<filter id="soft-shadow" x="-20%" y="-20%" width="140%" height="140%">
			<feDropShadow dx="0" dy="24" stdDeviation="28" flood-color="#000000" flood-opacity="0.28" />
		</filter>
	</defs>

	<rect width="1200" height="630" fill="#faf9f7" />
	<rect width="1200" height="630" fill="url(#grid)" />
	<path d="M1012 0h188v630H828z" fill="url(#accent)" opacity="0.12" />
	<path d="M0 460h1200v170H0z" fill="#f3f0eb" opacity="0.86" />

	<rect x="72" y="64" width="1056" height="502" rx="28" fill="#ffffff" stroke="#e0ddd8" filter="url(#soft-shadow)" />

	<g transform="translate(104 96) scale(1.375)">
		<rect width="64" height="64" rx="14" fill="#faf9f7" stroke="#e0ddd8" stroke-width="1" />
		<path
			d="M20 51V28a12 12 0 0 1 24 0v23l-4.8-4-4.8 4-4.8-4-4.8 4-4.8-4Z"
			fill="#211f1d"
		/>
		<circle cx="27" cy="30" r="2.4" fill="#faf9f7" />
		<circle cx="37" cy="30" r="2.4" fill="#faf9f7" />
		<path d="M21 40c6-5 12 5 21 0v5c-8 5-14-5-21 0Z" fill="#c45c3e" />
	</g>

	<text x="216" y="132" fill="#1a1a1a" font-family="Arial" font-size="30" font-weight="500">
		volga-sh/ghostcall
	</text>
	<text x="216" y="168" fill="#6b6560" font-family="Arial" font-size="22" font-weight="300">
		TypeScript SDK and Yul program
	</text>

	<text x="104" y="312" fill="#1a1a1a" font-family="Georgia" font-size="92" font-weight="400">
		ghostcall
	</text>
	<text x="108" y="372" fill="#3d3833" font-family="Arial" font-size="34" font-weight="300">
		Batch EVM blockchain reads
	</text>
	<text x="108" y="412" fill="#3d3833" font-family="Arial" font-size="34" font-weight="300">
		without deployment dependencies.
	</text>

	<g transform="translate(850 168) scale(3.28125)" opacity="0.92">
		<rect width="64" height="64" rx="14" fill="#faf9f7" stroke="#e0ddd8" stroke-width="1" />
		<path
			d="M20 51V28a12 12 0 0 1 24 0v23l-4.8-4-4.8 4-4.8-4-4.8 4-4.8-4Z"
			fill="#211f1d"
		/>
		<circle cx="27" cy="30" r="2.4" fill="#faf9f7" />
		<circle cx="37" cy="30" r="2.4" fill="#faf9f7" />
		<path d="M21 40c6-5 12 5 21 0v5c-8 5-14-5-21 0Z" fill="#c45c3e" />
	</g>
</svg>
